<?xml version="1.0" encoding="iso-8859-1"?>
<!-- Generator: Adobe Illustrator 19.0.0, SVG Export Plug-In . SVG Version: 6.00 Build 0)  -->
<svg version="1.1" id="Layer_1" xmlns="http://www.w3.org/2000/svg" xmlns:xlink="http://www.w3.org/1999/xlink" x="0px" y="0px"
	 viewBox="0 0 512 512" style="enable-background:new 0 0 512 512;" xml:space="preserve">
<path style="fill:#FC9851;" d="M438.467,283.234v187.915H73.531V283.234H438.467z M394.892,427.574V326.809H117.105v100.766H394.892
	z"/>
<g>
	<rect x="40.85" y="471.149" style="fill:#F7CD95;" width="430.298" height="32.681"/>
	<rect x="40.85" y="250.553" style="fill:#F7CD95;" width="430.298" height="32.681"/>
	<path style="fill:#F7CD95;" d="M394.892,326.809v100.766H117.105V326.809H394.892z M277.786,377.191
		c0-12.037-9.75-21.787-21.787-21.787s-21.787,9.75-21.787,21.787c0,12.037,9.75,21.787,21.787,21.787
		S277.786,389.229,277.786,377.191z"/>
</g>
<g>
	<path style="fill:#296B94;" d="M255.999,355.404c12.037,0,21.787,9.75,21.787,21.787c0,12.037-9.75,21.787-21.787,21.787
		s-21.787-9.75-21.787-21.787C234.211,365.154,243.961,355.404,255.999,355.404z"/>
	<path style="fill:#296B94;" d="M460.254,69.567l10.894,25.753h-65.362l10.894-25.753c-5.066-5.36-8.17-12.593-8.17-20.545
		c0-16.547,13.41-29.957,29.957-29.957s29.957,13.41,29.957,29.957C468.424,56.974,465.319,64.207,460.254,69.567z"/>
	<path style="fill:#296B94;" d="M388.999,250.553h-266c5.545-68.608,62.965-122.553,133-122.553S383.454,181.945,388.999,250.553z"
		/>
</g>
<g>
	<path style="fill:#700D00;" d="M471.148,242.383h-74.82c-4.372-32.465-19.848-62.355-44.091-84.825
		c-24.245-22.471-55.255-35.608-88.068-37.485v-16.583h141.588c0.046,0,65.365,0,65.365,0c0.305,0.002,0.583-0.013,0.861-0.042
		c0.283-0.032,0.537-0.069,0.79-0.121c0.248-0.05,0.49-0.113,0.73-0.185c0.578-0.175,1.09-0.392,1.572-0.657
		c0.057-0.032,0.109-0.068,0.166-0.1c0.171-0.099,0.342-0.199,0.505-0.312c0.129-0.087,0.249-0.184,0.373-0.278
		c0.084-0.064,0.171-0.125,0.252-0.193c0.137-0.113,0.265-0.235,0.393-0.357c0.062-0.059,0.127-0.114,0.187-0.175
		c0.12-0.121,0.23-0.248,0.341-0.375c0.063-0.073,0.131-0.143,0.192-0.217c0.094-0.114,0.178-0.235,0.265-0.354
		c0.071-0.097,0.144-0.192,0.21-0.291c0.066-0.1,0.125-0.205,0.187-0.308c0.076-0.126,0.154-0.252,0.223-0.382
		c0.045-0.084,0.082-0.171,0.124-0.256c0.074-0.154,0.149-0.306,0.215-0.464c0.033-0.078,0.058-0.16,0.087-0.24
		c0.062-0.166,0.125-0.331,0.176-0.502c0.031-0.099,0.051-0.2,0.077-0.301c0.039-0.153,0.082-0.303,0.113-0.459
		c0.037-0.186,0.062-0.376,0.086-0.565c0.009-0.071,0.024-0.141,0.032-0.212c0.082-0.806,0.046-1.63-0.121-2.448
		c-0.051-0.256-0.117-0.508-0.192-0.754c-0.092-0.3-0.193-0.574-0.307-0.842l-8.969-21.197c4.484-6.377,6.907-13.974,6.907-21.88
		c0-18.218-12.848-33.486-29.957-37.237V8.17c0-4.512-3.657-8.17-8.17-8.17c-4.513,0-8.172,3.658-8.172,8.17v3.615
		c-17.109,3.751-29.957,19.018-29.957,37.237c0,7.905,2.423,15.502,6.907,21.88l-6.875,16.248H255.999
		c-4.513,0-8.17,3.658-8.17,8.17v24.754c-32.813,1.877-63.824,15.014-88.068,37.485c-24.243,22.47-39.719,52.36-44.091,84.825H40.85
		c-4.513,0-8.17,3.658-8.17,8.17v32.681c0,4.512,3.657,8.17,8.17,8.17H65.36v171.574H40.85c-4.513,0-8.17,3.658-8.17,8.17v32.681
		c0,4.512,3.657,8.17,8.17,8.17h430.298c4.513,0,8.17-3.658,8.17-8.17v-32.681c0-4.512-3.657-8.17-8.17-8.17h-24.511V291.404h24.511
		c4.513,0,8.17-3.658,8.17-8.17v-32.681C479.318,246.041,475.66,242.383,471.148,242.383z M422.622,63.964
		c-3.832-4.062-5.942-9.369-5.942-14.943c0-12.013,9.774-21.787,21.787-21.787s21.787,9.774,21.787,21.787
		c0,5.574-2.111,10.881-5.942,14.943c-2.224,2.357-2.844,5.806-1.582,8.79l6.09,14.395h-40.706l6.091-14.395
		C425.466,69.769,424.846,66.32,422.622,63.964z M255.999,136.17c61.814,0,114.566,45.981,123.823,106.213H132.175
		C141.432,182.151,194.185,136.17,255.999,136.17z M462.977,275.064H106.211c-4.513,0-8.17,3.658-8.17,8.17
		c0,4.512,3.657,8.17,8.17,8.17h324.085v171.574H106.211c-4.513,0-8.17,3.658-8.17,8.17c0,4.512,3.657,8.17,8.17,8.17h356.766v16.34
		H49.02v-16.34h24.511c4.513,0,8.17-3.658,8.17-8.17V283.234c0-4.512-3.657-8.17-8.17-8.17H49.02v-16.34h339.961
		c0.024,0,73.996,0,73.996,0V275.064z"/>
	<path style="fill:#700D00;" d="M255.999,347.234c-16.518,0-29.957,13.438-29.957,29.957c0,16.519,13.439,29.957,29.957,29.957
		s29.957-13.438,29.957-29.957C285.956,360.672,272.517,347.234,255.999,347.234z M255.999,390.809
		c-7.509,0-13.617-6.108-13.617-13.617s6.108-13.617,13.617-13.617s13.617,6.108,13.617,13.617S263.506,390.809,255.999,390.809z"/>
	<path style="fill:#700D00;" d="M117.105,435.745h277.787c4.513,0,8.17-3.658,8.17-8.17V326.809c0-4.512-3.657-8.17-8.17-8.17
		H117.105c-4.513,0-8.17,3.658-8.17,8.17v100.766C108.935,432.087,112.592,435.745,117.105,435.745z M125.275,334.979h261.447
		v84.426H125.275V334.979z"/>
</g>
<g>
</g>
<g>
</g>
<g>
</g>
<g>
</g>
<g>
</g>
<g>
</g>
<g>
</g>
<g>
</g>
<g>
</g>
<g>
</g>
<g>
</g>
<g>
</g>
<g>
</g>
<g>
</g>
<g>
</g>
</svg>
