<?xml version="1.0" encoding="iso-8859-1"?>
<!-- Generator: Adobe Illustrator 19.0.0, SVG Export Plug-In . SVG Version: 6.00 Build 0)  -->
<svg version="1.1" id="Layer_1" xmlns="http://www.w3.org/2000/svg" xmlns:xlink="http://www.w3.org/1999/xlink" x="0px" y="0px"
	 viewBox="0 0 511.999 511.999" style="enable-background:new 0 0 511.999 511.999;" xml:space="preserve">
<path style="fill:#B75548;" d="M108.75,403.252C214.427,508.93,359.127,535.567,431.944,462.75L49.249,80.061
	C-23.569,152.879,3.071,297.575,108.75,403.252z"/>
<path style="fill:#8E4238;" d="M403.253,108.75C508.93,214.426,535.567,359.127,462.75,431.943L80.061,49.249
	C152.879-23.569,297.575,3.071,403.253,108.75z"/>
<g>
	<circle style="fill:#700D00;" cx="335.336" cy="444.41" r="8.169"/>
	<circle style="fill:#700D00;" cx="289.12" cy="444.41" r="8.169"/>
	<circle style="fill:#700D00;" cx="222.896" cy="67.585" r="8.169"/>
	<path style="fill:#700D00;" d="M506.373,273.219c-0.953-4.409-5.302-7.208-9.712-6.258c-4.409,0.954-7.211,5.302-6.258,9.713
		c12.578,58.141,2.69,108.737-27.826,143.549L91.818,49.468c71.303-62.389,206.198-34.392,305.675,65.08
		c38.961,38.961,68.116,84.419,84.314,131.463c1.469,4.266,6.119,6.533,10.383,5.064c4.266-1.469,6.533-6.118,5.064-10.383
		c-17.002-49.376-47.504-96.99-88.209-137.695c-52.27-52.269-115.562-87.407-178.217-98.941
		C167.063-7.683,111.472,6.325,74.297,43.499c-1.533,1.531-2.393,3.61-2.393,5.776s0.86,4.245,2.393,5.776L456.99,437.74
		c1.595,1.595,3.686,2.393,5.776,2.393s4.181-0.797,5.776-2.393c19.707-19.707,32.915-44.53,39.254-73.78
		C513.843,336.065,513.363,305.535,506.373,273.219z"/>
	<path style="fill:#700D00;" d="M55.042,74.307c-3.19-3.19-8.363-3.19-11.552,0C6.315,111.482-7.694,167.072,4.045,230.835
		c11.535,62.654,46.674,125.946,98.944,178.215c64.455,64.456,146.914,102.938,220.577,102.938
		c46.271,0,85.75-15.022,114.169-43.441c3.19-3.19,3.19-8.363,0-11.552L55.042,74.307z M323.566,495.65
		c-69.424,0-147.564-36.692-209.023-98.152c-49.952-49.951-83.488-110.19-94.429-169.621C10,172.945,20.419,125.006,49.458,91.827
		l370.755,370.751C395.439,484.247,362.214,495.65,323.566,495.65z"/>
</g>
<g>
</g>
<g>
</g>
<g>
</g>
<g>
</g>
<g>
</g>
<g>
</g>
<g>
</g>
<g>
</g>
<g>
</g>
<g>
</g>
<g>
</g>
<g>
</g>
<g>
</g>
<g>
</g>
<g>
</g>
</svg>
